<svg id="Layer_1" data-name="Layer 1" xmlns="http://www.w3.org/2000/svg" xmlns:xlink="http://www.w3.org/1999/xlink" viewBox="0 0 300 300"><defs><style>.cls-1{fill:none;}.cls-2{clip-path:url(#clip-path);}.cls-3{fill:#1c8d74;}</style><clipPath id="clip-path"><rect class="cls-1" x="3" y="3" width="294" height="294"/></clipPath></defs><title>open hours</title><g class="cls-2"><g id="Clock"><path id="Path_13" data-name="Path 13" class="cls-3" d="M47.1,47.1A133.47,133.47,0,0,1,150,3,133.47,133.47,0,0,1,252.9,47.1,133.47,133.47,0,0,1,297,150a133.47,133.47,0,0,1-44.1,102.9A133.47,133.47,0,0,1,150,297,133.47,133.47,0,0,1,47.1,252.9C20.15,223.5,3,191.65,3,150A133.47,133.47,0,0,1,47.1,47.1ZM216.15,216.15,233.3,199l-61.25-61.25L150,39.75H125.5V150a22.23,22.23,0,0,0,7.35,17.15,8.57,8.57,0,0,0,4.9,2.45Z"/></g></g></svg>
