<svg id="Layer_1" data-name="Layer 1" xmlns="http://www.w3.org/2000/svg" xmlns:xlink="http://www.w3.org/1999/xlink" viewBox="0 0 300 300"><defs><style>.cls-1{fill:none;}.cls-2{clip-path:url(#clip-path);}.cls-3{fill:#1c8d74;fill-rule:evenodd;}</style><clipPath id="clip-path"><rect class="cls-1" x="2" y="3" width="293.53" height="294"/></clipPath></defs><title>contact</title><g class="cls-2"><g id="Alert"><path id="Path_1" data-name="Path 1" class="cls-3" d="M277.45,260.25h-92.2a36.88,36.88,0,0,1-73.76,0H19.29a17.71,17.71,0,0,1-16.6-12.86,19.59,19.59,0,0,1,5.53-20.22,73.9,73.9,0,0,0,29.51-58.8V113.25a110.64,110.64,0,0,1,221.28,0v55.13a73.88,73.88,0,0,0,29.49,58.79A17.37,17.37,0,0,1,294,247.39,17.71,17.71,0,0,1,277.45,260.25Z"/></g></g></svg>