<svg id="Layer_2" data-name="Layer 2" xmlns="http://www.w3.org/2000/svg" viewBox="0 0 595.28 162.68"><defs><style>.cls-1{fill:#fff;}</style></defs><title>GJOMO_logo</title><path class="cls-1" d="M126.37,93.5c0,.29,0,.57,0,.85-.14.82-.29,1.64-.46,2.45a0,0,0,0,0,0,0c-5.25,25.09-27,46.22-52.87,48A58.32,58.32,0,1,1,95.17,34.74,13.53,13.53,0,0,1,98.68,56.4l-2.07,2.06a14.37,14.37,0,0,1-16,3.13,27.68,27.68,0,1,0-11.79,52.8,28.12,28.12,0,0,0,16.88-5.63,3.3,3.3,0,0,0-2.06-5.88H77.72a9,9,0,0,1-9-9V90a7.64,7.64,0,0,1,7.65-7.65h39.89A11.2,11.2,0,0,1,126.37,93.5Zm15.5,48.89A43.89,43.89,0,0,0,156.76,145c22.71,0,41.84-18.2,41.84-45V41.53a13.15,13.15,0,0,0-13.15-13.15h-4.34A13.15,13.15,0,0,0,168,41.53v60.41c0,7.62-5,12.6-12.29,12.6a10.45,10.45,0,0,1-3-.42c-4.4-1.28-9.14.43-12.37,3.68l-3,3.06C130.61,127.59,132.94,139.19,141.87,142.39ZM325.53,49.68l6.93-6.92a8.51,8.51,0,0,0,0-12l-3.6-3.63a8.51,8.51,0,0,0-12.05,0l-7,7a7.63,7.63,0,0,1-9.06,1.27,57.71,57.71,0,0,0-27.18-7C241.31,28.12,215,54.58,215,86.86A58.41,58.41,0,0,0,222,114.71a7.6,7.6,0,0,1-1.26,9L216.54,128a8.5,8.5,0,0,0,.18,12.13l3.58,3.41a8.51,8.51,0,0,0,11.87-.15l4.1-4.11a7.61,7.61,0,0,1,9-1.27,58.51,58.51,0,0,0,26.26,7c31.4.83,58.41-24.11,59.82-55.49a58.74,58.74,0,0,0-7.13-30.79A7.63,7.63,0,0,1,325.53,49.68ZM245.44,87.06V86.7a27.78,27.78,0,0,1,27.68-27.84h.33c4.34,0,6.38,5.45,3.33,8.53L254,90.37A5,5,0,0,1,245.44,87.06Zm55.51-.9v.54a27.91,27.91,0,0,1-27.83,27.84h-.5c-4.32-.08-6.32-5.47-3.27-8.54l23-23.14A5,5,0,0,1,301,86.16Zm285.2.7A58.25,58.25,0,1,0,527.83,145,58.48,58.48,0,0,0,586.15,86.86Zm-30.49-.16a27.76,27.76,0,1,1-27.83-27.84A27.91,27.91,0,0,1,555.66,86.7ZM437,29.69c-21.95,0-24.27,12.68-36.26,12.46-11.82.55-13.79-12.46-35.87-12.46-26.39,0-10.84,26.18-9.51,54,1.5,31.45,18.52,65.49,30.27,65.49,16,0,1.51-54.92,15.11-54.92,13.79,0-.82,54.92,19.3,54.92,9.89,0,24.68-34.05,26.06-65.5C447.34,55.86,462.49,29.69,437,29.69Z"/></svg>