<svg xmlns="http://www.w3.org/2000/svg" viewBox="0 0 95 91.3"><defs><style>.cls-1{fill:#fff;}</style></defs><title>checkmark_white</title><g id="Layer_1" data-name="Layer 1"><path class="cls-1" d="M86.8,11.7H72.9v-4a3.3,3.3,0,0,0-6.6,0v4H33.8v-4a3.3,3.3,0,1,0-6.6,0v4h-14A10.71,10.71,0,0,0,2.5,22.4V85A10.71,10.71,0,0,0,13.2,95.7H86.8A10.71,10.71,0,0,0,97.5,85V22.3A10.69,10.69,0,0,0,86.8,11.7Zm4.1,73.2a4,4,0,0,1-4.1,4H13.2a4.1,4.1,0,0,1-4.1-4V42.5H90.8V84.9Zm0-49.1H9.1V22.3a4,4,0,0,1,4.1-4H27.1v4a3.3,3.3,0,0,0,6.6,0v-4H66.2v4a3.3,3.3,0,1,0,6.6,0v-4H86.7a4.1,4.1,0,0,1,4.1,4V35.8Z" transform="translate(-2.5 -4.4)"/><path class="cls-1" d="M44.3,78.2a3.17,3.17,0,0,0,4.8,0L67.1,59a3.24,3.24,0,0,0-.2-4.7,3.33,3.33,0,0,0-4.7.2L46.7,71.1l-8.3-8.9a3.33,3.33,0,1,0-4.9,4.5Z" transform="translate(-2.5 -4.4)"/></g></svg>